# xmcd
#
# Track frame offsets:
#  150
#  23767
#  45305
#  70400
#  86810
#  109245
#  131720
#  152927
#  174400
#  195460
#  220400
#  246102
#
# Disc length: 3515 seconds
#
# Revision: 0
# Processed by: cddbd v1.5.2PL0 Copyright (c) Steve Scherf et al.
# Submitted via: AltoMP3_Maker 3.0
#
DISCID=a70db90c
DTITLE=Johnny Guitar Watson - Bow Wow
DYEAR=1900
DGENRE=
TTITLE0=Johnny G. Is Back
TTITLE1=Bow Wow
TTITLE2=Never To Late
TTITLE3=My Funk
TTITLE4=It Takes 2
TTITLE5=Time Change
TTITLE6=Doing Wrong Woman
TTITLE7=What's Up With You
TTITLE8=Hook Me Up
TTITLE9=I Don't Think So
TTITLE10=Ain't Making No Cents (Bonus)
TTITLE11=Statue Of Liberty (Bonus)
EXTD=
EXTT0=
EXTT1=
EXTT2=
EXTT3=
EXTT4=
EXTT5=
EXTT6=
EXTT7=
EXTT8=
EXTT9=
EXTT10=
EXTT11=
PLAYORDER=
